<svg width="458" height="86" viewBox="0 0 458 86" fill="none" xmlns="http://www.w3.org/2000/svg">
<g clip-path="url(#clip0_37_1228)">
<path d="M171.25 30.3498H166.32V41.9898H163.01V30.3498H158.08V27.3398H171.26V30.3498H171.25Z" fill="#0082D1"/>
<path d="M181.2 39.0998H174.8L173.76 41.9898H170.29L175.99 27.3398H180.08L185.78 41.9898H182.23L181.19 39.0998H181.2ZM180.16 36.2498L178 30.2398L175.84 36.2498H180.16Z" fill="#0082D1"/>
<path d="M194.11 27.3496H197.42V41.9996H194.11V27.3496Z" fill="#0082D1"/>
<path d="M213.99 27.3496V41.9996H210.68V35.9896H204.67V41.9996H201.36V27.3496H204.67V32.9796H210.68V27.3496H213.99Z" fill="#0082D1"/>
<path d="M236.43 38.9896H236.97V41.9996H235.27C233.5 41.9996 232.49 41.0396 232.49 39.2596V36.0596H228.52V41.9996H225.2V36.0596H221.19V39.2596C221.19 41.0296 220.19 41.9996 218.41 41.9996H216.75V38.9896H217.25C217.67 38.9896 217.91 38.7196 217.91 38.3296V33.1296H220.11L216.72 27.3496H220.34L223.46 33.1296H225.19V27.3496H228.51V33.1296H230.21L233.33 27.3496H236.95L233.56 33.1296H235.76V38.3296C235.76 38.7196 236.03 38.9896 236.42 38.9896H236.43Z" fill="#0082D1"/>
<path d="M252.57 27.3496V41.9996H249.33V32.4396L242.85 41.9996H239.69V27.3496H242.93V36.8696L249.37 27.3496H252.57Z" fill="#0082D1"/>
<path d="M269.15 27.3496V41.9996H265.83V35.9896H259.82V41.9996H256.51V27.3496H259.82V32.9796H265.83V27.3496H269.15Z" fill="#0082D1"/>
<path d="M273.08 27.3496H276.39V41.9996H273.08V27.3496Z" fill="#0082D1"/>
<path d="M292.16 32.0498C292.16 35.0198 290.08 36.7498 286.57 36.7498H283.6V41.9898H280.32V27.3398H286.56C290.07 27.3398 292.15 29.1098 292.15 32.0398L292.16 32.0498ZM288.81 32.1298C288.81 30.7798 287.89 30.1298 286.19 30.1298H283.61V34.1398H286.19C287.89 34.1398 288.81 33.4498 288.81 32.1398V32.1298Z" fill="#0082D1"/>
<path d="M307.65 27.3496V41.9996H304.41V32.4396L297.93 41.9996H294.77V27.3496H298.01V36.8696L304.45 27.3496H307.65Z" fill="#0082D1"/>
<path d="M324.23 27.3496V41.9996H320.91V35.9896H314.9V41.9996H311.59V27.3496H314.9V32.9796H320.91V27.3496H324.23Z" fill="#0082D1"/>
<path d="M338.25 30.3498H331.47V41.9898H328.16V27.3398H338.26V30.3498H338.25Z" fill="#0082D1"/>
<path d="M353.09 27.3496L349.12 38.0996C348.12 40.8796 346.54 42.1896 344.23 42.1896C341.8 42.1896 340.18 40.6096 340.18 38.2996C340.18 37.0696 340.64 35.9896 341.49 35.2196H342.92L338.87 27.3596H342.49L346.23 35.2196H347.04L349.58 27.3596H353.09V27.3496ZM346.04 38.2596L346.31 37.4896H343.27C343.12 37.7196 343.04 37.9896 343.04 38.2996C343.04 39.1096 343.5 39.6096 344.31 39.6096C345.12 39.6096 345.7 39.1496 346.05 38.2596H346.04Z" fill="#0082D1"/>
<path d="M373.79 27.3496L369.82 38.0996C368.82 40.8796 367.24 42.1896 364.93 42.1896C362.5 42.1896 360.88 40.6096 360.88 38.2996C360.88 37.0696 361.34 35.9896 362.19 35.2196H363.62L359.57 27.3596H363.19L366.93 35.2196H367.74L370.28 27.3596H373.79V27.3496ZM366.74 38.2596L367.01 37.4896H363.97C363.82 37.7196 363.74 37.9896 363.74 38.2996C363.74 39.1096 364.2 39.6096 365.01 39.6096C365.82 39.6096 366.4 39.1496 366.74 38.2596Z" fill="#0082D1"/>
<path d="M388.01 38.9896H388.55V41.9996H386.85C385.04 41.9996 384.04 41.0396 384.04 39.2596V36.0596H379.26V41.9996H375.95V27.3496H379.26V33.1296H381.46L384.93 27.3496H388.55L384.81 33.1296H387.35V38.3296C387.35 38.7196 387.62 38.9896 388.01 38.9896Z" fill="#0082D1"/>
<path d="M403.12 32.0498C403.12 35.0198 401.04 36.7498 397.53 36.7498H394.56V41.9898H391.28V27.3398H397.52C401.03 27.3398 403.11 29.1098 403.11 32.0398L403.12 32.0498ZM399.77 32.1298C399.77 30.7798 398.85 30.1298 397.15 30.1298H394.57V34.1398H397.15C398.85 34.1398 399.77 33.4498 399.77 32.1398V32.1298Z" fill="#0082D1"/>
<path d="M413.72 39.0998H407.32L406.28 41.9898H402.81L408.52 27.3398H412.6L418.31 41.9898H414.76L413.72 39.0998ZM412.68 36.2498L410.52 30.2398L408.36 36.2498H412.68Z" fill="#0082D1"/>
<path d="M418.31 23.2598H421.47V25.8798H418.31V23.2598ZM420.47 27.3498H423.78V41.9998H420.47V27.3498ZM422.78 23.2598H425.94V25.8798H422.78V23.2598Z" fill="#0082D1"/>
<path d="M440.35 27.3496V41.9996H437.03V35.9896H431.02V41.9996H427.71V27.3496H431.02V32.9796H437.03V27.3496H440.35Z" fill="#0082D1"/>
<path d="M457.16 27.3496V41.9996H453.92V32.4396L447.44 41.9996H444.28V27.3496H447.52V36.8696L453.96 27.3496H457.16Z" fill="#0082D1"/>
<path d="M154.02 17.5798H147.62L146.58 20.4698H143.11L148.81 5.81982H152.9L158.6 20.4698H155.05L154.01 17.5798H154.02ZM152.98 14.7298L150.82 8.71982L148.66 14.7298H152.98Z" fill="#0082D1"/>
<path d="M159.34 13.1499C159.34 8.63988 162.23 5.62988 166.51 5.62988C169.67 5.62988 171.98 7.20988 172.83 9.90988L169.71 10.9899C169.17 9.28988 168.05 8.40988 166.43 8.40988C164.16 8.40988 162.73 10.2199 162.73 13.1499C162.73 16.0799 164.12 17.8899 166.43 17.8899C168.05 17.8899 169.17 16.9999 169.71 15.3099L172.83 16.3899C172.02 19.0899 169.67 20.6699 166.51 20.6699C162.19 20.6699 159.34 17.6999 159.34 13.1499Z" fill="#0082D1"/>
<path d="M174.18 13.1499C174.18 8.63988 177.11 5.62988 181.46 5.62988C185.81 5.62988 188.74 8.59988 188.74 13.1499C188.74 17.6999 185.81 20.6699 181.46 20.6699C177.11 20.6699 174.18 17.6999 174.18 13.1499ZM185.36 13.1499C185.36 10.3399 183.82 8.48988 181.47 8.48988C179.12 8.48988 177.58 10.3399 177.58 13.1499C177.58 15.9599 179.12 17.8099 181.47 17.8099C183.82 17.8099 185.36 15.9599 185.36 13.1499Z" fill="#0082D1"/>
<path d="M205.9 17.4701V23.5601H202.66V20.4801H191.64V5.83008H194.95V17.4701H200.81V5.83008H204.12V17.4701H205.89H205.9Z" fill="#0082D1"/>
<path d="M208.52 5.83008H211.83V20.4801H208.52V5.83008Z" fill="#0082D1"/>
<path d="M224.9 17.5798H218.5L217.46 20.4698H213.99L219.69 5.81982H223.78L229.49 20.4698H225.94L224.9 17.5798ZM223.86 14.7298L221.7 8.71982L219.54 14.7298H223.86Z" fill="#0082D1"/>
<path d="M245.91 17.4701V23.5601H242.67V20.4801H231.65V5.83008H234.97V17.4701H240.83V5.83008H244.14V17.4701H245.91Z" fill="#0082D1"/>
<path d="M248.53 5.83008H251.84V20.4801H248.53V5.83008Z" fill="#0082D1"/>
<path d="M267.11 20.4798H263.79V15.0798H258.9V17.7398C258.9 19.5098 257.86 20.4798 256.09 20.4798H254.39V17.4698H254.93C255.31 17.4698 255.59 17.1998 255.59 16.8098V13.6498H258.06C256.44 13.1498 254.98 11.8798 254.98 9.90982C254.98 7.36982 256.98 5.81982 260.34 5.81982H267.12V20.4698L267.11 20.4798ZM258.28 10.5398C258.28 11.9298 259.13 12.5398 260.82 12.5398H263.79V8.52982H260.82C259.12 8.52982 258.28 9.18982 258.28 10.5298V10.5398Z" fill="#0082D1"/>
<path d="M289.85 20.4801H286.53V8.84008H280.52V20.4801H277.21V5.83008H289.85V20.4801Z" fill="#0082D1"/>
<path d="M305.61 10.5301C305.61 13.5001 303.53 15.2301 300.02 15.2301H297.05V20.4701H293.77V5.83008H300.01C303.52 5.83008 305.6 7.60008 305.6 10.5301H305.61ZM302.26 10.6101C302.26 9.26008 301.34 8.61008 299.64 8.61008H297.06V12.6201H299.64C301.34 12.6201 302.26 11.9301 302.26 10.6201V10.6101Z" fill="#0082D1"/>
<path d="M307.19 13.1499C307.19 8.63988 310.12 5.62988 314.48 5.62988C318.84 5.62988 321.76 8.59988 321.76 13.1499C321.76 17.6999 318.83 20.6699 314.48 20.6699C310.13 20.6699 307.19 17.6999 307.19 13.1499ZM318.37 13.1499C318.37 10.3399 316.83 8.48988 314.48 8.48988C312.13 8.48988 310.59 10.3399 310.59 13.1499C310.59 15.9599 312.13 17.8099 314.48 17.8099C316.83 17.8099 318.37 15.9599 318.37 13.1499Z" fill="#0082D1"/>
<path d="M335.44 17.5801V20.4701H324.65V5.83008H335.25V8.72008H327.89V11.5701H333.52V14.3501H327.89V17.5901H335.44V17.5801Z" fill="#0082D1"/>
<path d="M350.24 17.4701H350.78V20.4801H349.08C347.27 20.4801 346.27 19.5201 346.27 17.7401V14.5401H341.49V20.4801H338.18V5.83008H341.49V11.6101H343.69L347.16 5.83008H350.78L347.04 11.6101H349.58V16.8101C349.58 17.2001 349.85 17.4701 350.24 17.4701Z" fill="#0082D1"/>
<path d="M365.12 8.84008H360.19V20.4801H356.88V8.84008H351.95V5.83008H365.13V8.84008H365.12Z" fill="#0082D1"/>
<path d="M379.84 5.83008L375.87 16.5801C374.87 19.3601 373.29 20.6701 370.98 20.6701C368.55 20.6701 366.93 19.0901 366.93 16.7801C366.93 15.5501 367.39 14.4701 368.24 13.7001H369.67L365.62 5.84008H369.24L372.98 13.7001H373.79L376.33 5.84008H379.84V5.83008ZM372.79 16.7401L373.06 15.9701H370.02C369.87 16.2001 369.79 16.4701 369.79 16.7801C369.79 17.5901 370.25 18.0901 371.06 18.0901C371.87 18.0901 372.45 17.6301 372.79 16.7401Z" fill="#0082D1"/>
<path d="M393.91 16.4701C393.91 18.9701 392.06 20.4801 388.9 20.4801H382V5.83008H388.86C391.87 5.83008 393.64 7.29008 393.64 9.72008C393.64 11.2201 392.95 12.3401 391.75 13.0001C393.14 13.6601 393.91 14.8501 393.91 16.4701ZM385.16 8.49008V11.7301H388.32C389.71 11.7301 390.4 11.1901 390.4 10.1101C390.4 9.03008 389.71 8.49008 388.32 8.49008H385.16ZM390.63 16.0401C390.63 14.8501 389.86 14.2701 388.36 14.2701H385.16V17.8201H388.36C389.86 17.8201 390.63 17.2401 390.63 16.0501V16.0401Z" fill="#0082D1"/>
<path d="M405.93 17.5798H399.53L398.49 20.4698H395.02L400.73 5.81982H404.81L410.52 20.4698H406.97L405.93 17.5798ZM404.89 14.7298L402.73 8.71982L400.57 14.7298H404.89Z" fill="#0082D1"/>
<path d="M425.32 5.83008V20.4801H422V14.4701H415.99V20.4801H412.68V5.83008H415.99V11.4601H422V5.83008H425.32Z" fill="#0082D1"/>
<path d="M441.89 5.83008V20.4801H438.57V14.4701H432.56V20.4801H429.25V5.83008H432.56V11.4601H438.57V5.83008H441.89Z" fill="#0082D1"/>
<path d="M457.16 20.4798H453.84V15.0798H448.95V17.7398C448.95 19.5098 447.91 20.4798 446.14 20.4798H444.44V17.4698H444.98C445.36 17.4698 445.64 17.1998 445.64 16.8098V13.6498H448.11C446.49 13.1498 445.03 11.8798 445.03 9.90982C445.03 7.36982 447.03 5.81982 450.39 5.81982H457.17V20.4698L457.16 20.4798ZM448.33 10.5398C448.33 11.9298 449.18 12.5398 450.87 12.5398H453.84V8.52982H450.87C449.17 8.52982 448.33 9.18982 448.33 10.5298V10.5398Z" fill="#0082D1"/>
<path d="M15.84 23.2402C15.22 25.8102 14.9 28.4902 14.9 31.2402C14.9 33.9902 15.22 36.6702 15.84 39.2402H0V23.2402H15.84Z" fill="#0082D1"/>
<path d="M79.73 23.2402H40.82C38.88 25.3502 37.7 28.1602 37.7 31.2402C37.7 34.3202 38.89 37.1302 40.83 39.2402H90.31V23.2402H79.73Z" fill="#0082D1"/>
<path d="M49.53 46.4V46.47C48.36 46.47 47.22 46.34 46.13 46.08C43.6 45.51 41.32 44.3 39.44 42.64C38.33 41.66 37.36 40.51 36.58 39.24C35.13 36.92 34.3 34.17 34.3 31.24C34.3 28.31 35.13 25.57 36.57 23.24C37.36 21.97 38.33 20.82 39.44 19.83C42.13 17.45 45.66 16 49.53 16C53.4 16 56.93 17.45 59.62 19.83H78.62C74.05 8.23 62.73 0 49.53 0C36.33 0 25.02 8.23 20.46 19.83C20.02 20.94 19.64 22.08 19.34 23.24C18.66 25.79 18.3 28.47 18.3 31.24C18.3 34.01 18.66 36.68 19.34 39.24C19.65 40.4 20.02 41.54 20.45 42.64C24.62 53.23 34.41 61.01 46.13 62.29C47.25 62.41 48.38 62.47 49.53 62.47C50.23 62.47 50.92 62.45 51.61 62.4H61.36V46.4H49.53Z" fill="#FFD100"/>
<path d="M78.47 43.0001C78.52 42.8801 64.77 43.0001 64.77 43.0001V62.3301C64.77 62.3301 64.68 62.3801 64.63 62.4001H64.77V82.0401H80.77V43.0001H78.47Z" fill="#FFD100"/>
<path d="M174.47 46.3999V62.3999H158.64C159.26 59.8299 159.58 57.1499 159.58 54.3999C159.58 51.6499 159.26 48.9699 158.64 46.3999H174.47Z" fill="#FFD100"/>
<path d="M133.65 62.3999C135.59 60.2899 136.78 57.4799 136.78 54.3999C136.78 51.3199 135.59 48.5099 133.65 46.3999H84.17V62.3999H133.65Z" fill="#FFD100"/>
<path d="M109.71 42.6399V23.2999C109.71 23.2999 109.79 23.2599 109.84 23.2399H109.71V3.8999H93.71V42.7299H109.71V42.6399Z" fill="#0082D1"/>
<path d="M155.14 46.3999C154.83 45.2399 154.46 44.0999 154.03 42.9999C150.19 33.2399 141.56 25.8599 131.06 23.7799C129.95 23.5499 128.81 23.3899 127.66 23.2899V23.2399H127.02C126.33 23.1899 125.64 23.1699 124.94 23.1699C124.24 23.1699 123.55 23.1899 122.86 23.2399H113.11V39.2399H126.37C128.02 39.3899 129.6 39.8099 131.06 40.4599C132.52 41.0999 133.86 41.9599 135.03 42.9999C136.15 43.9799 137.11 45.1299 137.9 46.3999C139.35 48.7199 140.18 51.4699 140.18 54.3999C140.18 57.3299 139.35 60.0699 137.9 62.3999C137.12 63.6699 136.15 64.8099 135.04 65.7999C132.35 68.1899 128.81 69.6399 124.94 69.6399C121.07 69.6399 117.63 68.2299 114.96 65.8899H95.9C100.49 77.4399 111.78 85.6399 124.94 85.6399C138.1 85.6399 149.46 77.3999 154.03 65.7999C154.46 64.6999 154.83 63.5599 155.14 62.3999C155.82 59.8399 156.18 57.1599 156.18 54.3999C156.18 51.6399 155.82 48.9599 155.14 46.3999Z" fill="#0082D1"/>
</g>
<defs>
<clipPath id="clip0_37_1228">
<rect width="457.16" height="85.64" fill="white"/>
</clipPath>
</defs>
</svg>
