<svg width="81" height="44" viewBox="0 0 81 44" fill="none" xmlns="http://www.w3.org/2000/svg">
<path d="M32.1284 11.9404H12.0567C11.056 13.0245 10.4473 14.4682 10.4473 16.0507C10.4473 17.6331 11.0611 19.0768 12.0619 20.1609H37.586V11.9404H32.1284Z" fill="#0082D1"/>
<path d="M16.5494 23.8393V23.8753C15.9458 23.8753 15.3578 23.8085 14.7955 23.6749C13.4904 23.3821 12.3143 22.7604 11.3445 21.9075C10.7719 21.404 10.2715 20.8132 9.86916 20.1607C9.12118 18.9687 8.69302 17.5558 8.69302 16.0504C8.69302 14.5451 9.12117 13.1373 9.864 11.9402C10.2715 11.2877 10.7719 10.6969 11.3445 10.1882C12.7321 8.96544 14.5531 8.22046 16.5494 8.22046C18.5457 8.22046 20.3667 8.96544 21.7543 10.1882H31.5554C29.198 4.2284 23.3586 0 16.5494 0C9.74019 0 3.90595 4.2284 1.55368 10.1882C1.32671 10.7585 1.13069 11.3442 0.975936 11.9402C0.625159 13.2503 0.439453 14.6273 0.439453 16.0504C0.439453 17.4736 0.625159 18.8454 0.975936 20.1607C1.13585 20.7567 1.32671 21.3424 1.54853 21.9075C3.69961 27.3484 8.74976 31.3456 14.7955 32.0033C15.3733 32.0649 15.9562 32.0957 16.5494 32.0957C16.9105 32.0957 17.2664 32.0855 17.6224 32.0598H22.6519V23.8393H16.5494Z" fill="#FFD100"/>
<path d="M31.4792 22.0928C31.505 22.0312 24.4121 22.0928 24.4121 22.0928V32.0242C24.4121 32.0242 24.3656 32.0499 24.3398 32.0601H24.4121V42.1507H32.6656V22.0928H31.4792Z" fill="#FFD100"/>
<path d="M80.9999 23.8389V32.0593H72.834C73.1538 30.7389 73.3189 29.362 73.3189 27.9491C73.3189 26.5362 73.1538 25.1593 72.834 23.8389H80.9999Z" fill="#FFD100"/>
<path d="M59.9431 32.0593C60.9438 30.9753 61.5577 29.5315 61.5577 27.9491C61.5577 26.3667 60.9438 24.9229 59.9431 23.8389H34.4189V32.0593H59.9431Z" fill="#FFD100"/>
<path d="M47.5934 21.9038V11.9673C47.5934 11.9673 47.6347 11.9468 47.6605 11.9365H47.5934V2H39.3398V21.95H47.5934V21.9038Z" fill="#0082D1"/>
<path d="M71.0286 23.8355C70.8686 23.2395 70.6778 22.6538 70.456 22.0886C68.4751 17.0741 64.0233 13.2825 58.6069 12.2138C58.0343 12.0956 57.4463 12.0134 56.8531 11.962V11.9364H56.5229C56.167 11.9107 55.811 11.9004 55.45 11.9004C55.0889 11.9004 54.7329 11.9107 54.377 11.9364H49.3475V20.1568H56.1876C57.0388 20.2339 57.8538 20.4497 58.6069 20.7836C59.3601 21.1124 60.0513 21.5543 60.6549 22.0886C61.2326 22.5921 61.7278 23.183 62.1353 23.8355C62.8833 25.0274 63.3115 26.4403 63.3115 27.9457C63.3115 29.4511 62.8833 30.8588 62.1353 32.0559C61.733 32.7084 61.2326 33.2941 60.66 33.8028C59.2724 35.0307 57.4463 35.7757 55.45 35.7757C53.4536 35.7757 51.6791 35.0513 50.3018 33.849H40.4697C42.8375 39.7832 48.6614 43.9961 55.45 43.9961C62.2385 43.9961 68.0985 39.7626 70.456 33.8028C70.6778 33.2376 70.8686 32.6519 71.0286 32.0559C71.3793 30.7407 71.565 29.3637 71.565 27.9457C71.565 26.5277 71.3793 25.1507 71.0286 23.8355Z" fill="#0082D1"/>
</svg>
