<svg width="149" height="54" viewBox="0 0 149 54" fill="none" xmlns="http://www.w3.org/2000/svg">
<path d="M9.59674 0.0585938V24.4463L9.58275 24.4228L0.820557 36.8061V0.0585938H9.59674Z" fill="#1B1C1D"/>
<path d="M41.2811 53.9582H30.4927L14.9805 32.042L9.59681 24.4463L9.58282 24.4228L9.59681 24.4016L14.9805 16.8035L26.8368 0.0585938H37.6181L20.3712 24.4228L41.2811 53.9582Z" fill="#D22122"/>
<path d="M60.1321 0.0585938H51.8595V53.9582H60.1321V0.0585938Z" fill="black"/>
<path d="M103.964 0L102.332 8.35127H73.8862V0H103.964Z" fill="black"/>
<path d="M102.332 45.4277L103.964 53.779H73.8862V45.4277H102.332Z" fill="black"/>
<path d="M99.5339 21.6543H73.8862V30.0056H99.5339V21.6543Z" fill="black"/>
<path d="M143.214 4.03812C140.078 1.39245 135.884 0.0507812 130.745 0.0507812H116.667V53.7739H124.921V30.7325H130.997C136.005 30.7325 140.13 29.3203 143.256 26.524C146.425 23.6994 148.031 19.8745 148.031 15.1739C148.031 10.4734 146.411 6.73792 143.214 4.03812ZM139.418 15.5341C139.418 20.7383 136.478 23.1627 130.169 23.1627H124.921V7.61824H130.458C133.17 7.61824 135.306 8.34321 136.987 9.83552C138.619 11.2972 139.418 13.1544 139.418 15.5341Z" fill="black"/>
</svg>
